<?xml version="1.0" encoding="utf-8"?>
<!-- Generator: Adobe Illustrator 24.0.1, SVG Export Plug-In . SVG Version: 6.00 Build 0)  -->
<svg version="1.1" id="Layer_1" xmlns="http://www.w3.org/2000/svg" xmlns:xlink="http://www.w3.org/1999/xlink" x="0px" y="0px"
	 viewBox="0 0 152.96 151.63" style="enable-background:new 0 0 152.96 151.63;" xml:space="preserve">
<style type="text/css">
	.st0{clip-path:url(#SVGID_2_);fill:#FFFFFF;}
</style>
<g>
	<defs>
		<rect id="SVGID_1_" width="152.96" height="151.63"/>
	</defs>
	<clipPath id="SVGID_2_">
		<use xlink:href="#SVGID_1_"  style="overflow:visible;"/>
	</clipPath>
	<path class="st0" d="M105.99,5.23l-9.52,21.21c1.23,0.46,2.46,0.99,3.63,1.59l9.51-21.19C108.43,6.26,107.22,5.73,105.99,5.23"/>
	<path class="st0" d="M116.58,40.48l9.02-6.86l-2.96,15.12c1.15,1.9,2.16,3.86,3.03,5.93l3.03-19.05l16.63,6.28
		c-0.81-1.62-1.67-3.23-2.6-4.8l-14.59-5.45l6.96-5.29c-0.87-1.01-1.76-2-2.68-2.95l-18.63,14.17
		C114.78,38.5,115.71,39.47,116.58,40.48"/>
	<path class="st0" d="M31.66,48.77l-7.17-5.64c2.44-3.95,5.31-7.61,8.57-10.92l7.04,5.78c0.95-0.95,1.92-1.84,2.95-2.7L24.94,20.36
		c-0.99,0.89-1.94,1.84-2.85,2.83l9.44,7.75c-3.26,3.33-6.15,7-8.6,10.94l-9.62-7.57c-0.73,1.11-1.43,2.26-2.08,3.41l18.51,14.59
		C30.33,51.11,30.96,49.92,31.66,48.77"/>
	<path class="st0" d="M121.93,103.66l4.2,9.79c-2.06,2.67-4.35,5.17-6.81,7.46l-9.9-3.5c-1.27,1.01-2.6,1.94-3.96,2.79l25.57,9.06
		c1.47-1.49,2.89-3.01,4.24-4.62L124.39,99.3C123.66,100.78,122.82,102.25,121.93,103.66 M121.42,121.65c2-1.92,3.87-3.97,5.6-6.13
		l4.1,9.56L121.42,121.65z"/>
	<path class="st0" d="M43.52,127.55c-2.85-1.85-5.55-3.93-8.06-6.22l2.51-10.3c-1.11-1.21-2.16-2.48-3.13-3.81l-6.52,26.66
		c1.63,1.37,3.31,2.66,5.04,3.89l23.79-13.26c-1.53-0.61-2.99-1.31-4.44-2.08L43.52,127.55z M32.45,133.73l2.49-10.21
		c2.09,1.85,4.31,3.56,6.63,5.12L32.45,133.73z"/>
	<path class="st0" d="M88.95,127.09l2.28,20.08L76.2,128.42c-1.35-0.02-2.69-0.08-4.02-0.22l0.65,23.31
		c1.43,0.08,2.85,0.12,4.28,0.12l-0.77-18.91l14.41,17.7c1.61-0.3,3.19-0.63,4.76-1.03l-2.58-23.35
		C91.62,126.45,90.29,126.81,88.95,127.09"/>
	<path class="st0" d="M19.35,102.47c-1.86,0-3.37,1.51-3.37,3.39c0,1.86,1.51,3.37,3.37,3.37c1.88,0,3.39-1.51,3.39-3.37
		C22.74,103.97,21.23,102.47,19.35,102.47"/>
	<path class="st0" d="M19.02,69.62c3.16,3.55,2.84,9.01-0.71,12.17c-3.55,3.16-9.01,2.84-12.17-0.71
		c-3.16-3.55-2.84-9.01,0.71-12.17l-2.64-2.96c-5.18,4.61-5.65,12.58-1.04,17.77c4.61,5.19,12.58,5.65,17.77,1.04
		c2.59-2.31,4-5.45,4.19-8.67s-0.85-6.51-3.16-9.1L19.02,69.62z"/>
	<path class="st0" d="M141.02,75.61c0-2.06-0.1-4.13-0.3-6.17l12.23,0.1c-0.1-1.33-0.24-2.64-0.42-3.94l-23.51-0.04
		c0.26,1.25,0.46,2.52,0.58,3.79l9.13,0.08c0.2,2.05,0.31,4.12,0.31,6.19c0,2.57-0.17,5.15-0.48,7.7l-9.11-0.09
		c-0.18,1.29-0.4,2.54-0.69,3.79l23.53,0.38c0.22-1.31,0.38-2.62,0.51-3.94l-12.24-0.11C140.86,80.77,141.02,78.18,141.02,75.61"/>
	<path class="st0" d="M73.13,13.87l5.59,8.95c1.67,0.04,3.29,0.16,4.9,0.38L69.16,0c-2.12,0.22-4.2,0.51-6.24,0.91l-7.24,26.42
		c1.51-0.67,3.03-1.29,4.6-1.78l2.8-10.21C66.37,14.58,69.74,14.08,73.13,13.87 M71.94,11.97c-2.78,0.23-5.55,0.63-8.27,1.22
		l2.75-10.05L71.94,11.97z"/>
</g>
</svg>
